<svg width="414" height="729" viewBox="0 0 414 729" fill="none" xmlns="http://www.w3.org/2000/svg">
<path d="M382 43.6827L379.122 42L217 334.307L219.878 336L382 43.6827Z" fill="url(#paint0_linear)"/>
<path d="M379 41.6053C331.089 15.1062 276.002 -2.15132e-05 217.368 -1.63873e-05C171.499 -1.23773e-05 127.798 9.24679 88 25.9521L216.579 334L379 41.6053Z" fill="url(#paint1_linear)"/>
<path d="M290.213 351.996C290.213 306.11 252.883 268.779 207.003 268.779C161.117 268.779 123.793 306.11 123.793 351.996C123.793 397.882 161.124 435.213 207.003 435.213C252.883 435.213 290.213 397.882 290.213 351.996ZM288.746 351.996C288.746 397.072 252.073 433.745 206.997 433.745C161.92 433.745 125.247 397.072 125.247 351.996C125.247 306.919 161.92 270.246 206.996 270.246C252.08 270.246 288.746 306.919 288.746 351.996Z" fill="white" fill-opacity="0.3"/>
<path d="M336.038 351.996C336.038 280.844 278.148 222.955 206.997 222.955C135.845 222.955 77.9624 280.837 77.9624 351.996C77.9624 423.148 135.845 481.037 206.997 481.037C278.155 481.037 336.038 423.155 336.038 351.996ZM334.57 351.996C334.57 422.338 277.339 479.57 206.997 479.57C136.655 479.57 79.423 422.338 79.423 351.996C79.423 281.654 136.655 224.423 206.997 224.423C277.339 224.423 334.57 281.654 334.57 351.996Z" fill="white" fill-opacity="0.3"/>
<path d="M381.862 351.997C381.862 255.58 303.421 177.139 207.003 177.139C110.586 177.139 32.1452 255.58 32.1452 351.997C32.1453 448.415 110.586 526.855 207.003 526.855C303.421 526.862 381.862 448.422 381.862 351.997ZM380.394 351.997C380.394 447.605 302.611 525.388 206.997 525.388C111.389 525.388 33.5989 447.605 33.5989 351.997C33.5989 256.39 111.382 178.607 206.996 178.607C302.611 178.607 380.394 256.39 380.394 351.997Z" fill="white" fill-opacity="0.3"/>
<path d="M427.686 351.998C427.686 230.315 328.686 131.315 207.003 131.315C85.3137 131.315 -13.6787 230.315 -13.6787 351.998C-13.6787 473.68 85.3206 572.68 207.003 572.68C328.686 572.687 427.686 473.687 427.686 351.998ZM426.218 351.998C426.218 472.877 327.876 571.212 207.003 571.212C86.1236 571.212 -12.2181 472.871 -12.2182 351.998C-12.2182 231.125 86.1235 132.783 207.003 132.783C327.876 132.783 426.218 231.125 426.218 351.998Z" fill="white" fill-opacity="0.3"/>
<path d="M472 352C472 205.884 353.12 86.9999 207 87C60.88 87 -58 205.876 -58 352C-58.0078 498.124 60.88 617 207 617C353.12 617 472 498.124 472 352ZM468.906 352C468.906 496.415 351.412 613.898 207 613.898C62.5884 613.898 -54.9059 496.415 -54.9059 352C-54.9059 207.585 62.5805 90.1017 207 90.1017C351.419 90.1017 468.906 207.593 468.906 352Z" fill="white" fill-opacity="0.3"/>
<path d="M524 352C524 177.213 381.793 35 207 35C32.2073 35 -110 177.203 -110 352C-110.009 526.797 32.2074 669 207 669C381.793 669 524 526.797 524 352ZM520.299 352C520.299 524.753 379.749 665.29 207 665.29C34.2511 665.29 -106.299 524.753 -106.299 352C-106.299 179.247 34.2416 38.7104 207 38.7104C379.758 38.7104 520.299 179.256 520.299 352Z" fill="white" fill-opacity="0.3"/>
<path d="M584 352C584 144.13 414.876 -25 207 -25C-0.876409 -24.9999 -170 144.119 -170 352C-170.011 559.882 -0.876343 729 207 729C414.876 729 584 559.881 584 352ZM579.598 352C579.598 557.451 412.446 724.587 207 724.587C1.55414 724.587 -165.598 557.451 -165.598 352C-165.598 146.549 1.54284 -20.5873 207 -20.5873C412.457 -20.5873 579.598 146.56 579.598 352Z" fill="white" fill-opacity="0.3"/>
<path d="M287.611 480.74C287.611 479.487 288.622 478.477 289.874 478.477C291.127 478.477 292.138 479.487 292.138 480.74C292.138 481.993 291.127 483.004 289.874 483.004C288.628 483.011 287.611 481.993 287.611 480.74Z" fill="white"/>
<path d="M391.338 333.792C391.338 333.127 391.878 332.587 392.542 332.587C393.207 332.587 393.747 333.127 393.747 333.792C393.747 334.456 393.207 334.996 392.542 334.996C391.878 334.996 391.338 334.463 391.338 333.792Z" fill="white"/>
<path d="M62 461.49C62 456.246 66.2418 452 71.5 452C76.7387 452 81 456.246 81 461.49C81 466.734 76.7582 471 71.5 471C66.2418 471 62 466.734 62 461.49Z" fill="white"/>
<path d="M240.236 388.302C240.236 386.973 241.316 385.893 242.645 385.893C243.974 385.893 245.054 386.973 245.054 388.302C245.054 389.631 243.974 390.711 242.645 390.711C241.316 390.718 240.236 389.638 240.236 388.302Z" fill="white"/>
<defs>
<linearGradient id="paint0_linear" x1="216.136" y1="337.573" x2="343.165" y2="111.744" gradientUnits="userSpaceOnUse">
<stop offset="0.598958" stop-color="#001400" stop-opacity="0"/>
<stop offset="1" stop-color="#F7F9FA"/>
</linearGradient>
<linearGradient id="paint1_linear" x1="183.165" y1="167.664" x2="389.183" y2="85.6873" gradientUnits="userSpaceOnUse">
<stop stop-opacity="0"/>
<stop offset="1" stop-color="#E3E5E6"/>
</linearGradient>
</defs>
</svg>
