<svg width="228" height="45" viewBox="0 0 228 45" fill="none" xmlns="http://www.w3.org/2000/svg">
<path d="M8.07775 8.264L3.08575 0.199997H23.1178L19.4698 17.288L29.8378 0.199997H43.1498L28.8138 23.944L35.7898 45H22.3498L17.1018 28.68L13.6458 45H0.20575L8.07775 8.264ZM33.9848 0.199997H58.1768L61.3128 11.144L69.1208 0.199997H78.4008L66.1768 18.056L73.7928 45H60.4168L56.7048 31.752L47.6168 45H37.1208L51.7768 24.52L46.9128 8.2L33.9848 0.199997ZM83.2558 16.776H107.448L105.592 25.48H81.3998L83.2558 16.776ZM112.003 26.056C112.174 25.3307 112.494 24.6267 112.963 23.944C113.475 23.2187 114.051 22.664 114.691 22.28L116.163 21.448L115.267 20.36C114.755 19.7627 114.393 19.0587 114.179 18.248C113.966 17.4373 113.945 16.6693 114.115 15.944L116.227 6.28C116.611 4.44533 117.486 2.97333 118.851 1.864C120.217 0.754664 121.817 0.199997 123.651 0.199997H146.371C148.206 0.199997 149.529 0.754664 150.339 1.864C151.15 2.97333 151.363 4.44533 150.979 6.28L148.803 16.776C148.633 17.544 148.291 18.2693 147.779 18.952C147.31 19.6347 146.755 20.168 146.115 20.552L144.643 21.448L145.539 22.536C146.051 23.1333 146.414 23.8373 146.627 24.648C146.841 25.4587 146.862 26.2267 146.691 26.952L144.067 38.92C143.641 40.7547 142.745 42.2267 141.379 43.336C140.057 44.4453 138.478 45 136.643 45H113.923C112.089 45 110.723 44.4453 109.827 43.336C108.974 42.2267 108.761 40.7547 109.187 38.92L112.003 26.056ZM127.619 15.368C127.491 15.9227 127.555 16.3707 127.811 16.712C128.067 17.0107 128.494 17.16 129.091 17.16H133.571C134.766 17.16 135.513 16.5627 135.811 15.368L136.387 12.808C136.515 12.2533 136.451 11.8267 136.195 11.528C135.939 11.1867 135.534 11.016 134.979 11.016H130.435C129.241 11.016 128.494 11.6133 128.195 12.808L127.619 15.368ZM125.443 34.184H129.923C130.478 34.184 130.947 34.0133 131.331 33.672C131.758 33.3307 132.035 32.8827 132.163 32.328L133.123 27.912C133.337 26.8453 132.953 26.248 131.971 26.12H127.171C126.617 26.12 126.126 26.2907 125.699 26.632C125.315 26.9733 125.059 27.4213 124.931 27.976L123.971 32.328C123.843 32.8827 123.907 33.3307 124.163 33.672C124.462 34.0133 124.889 34.184 125.443 34.184ZM155.627 6.28C156.011 4.44533 156.886 2.97333 158.251 1.864C159.617 0.754664 161.217 0.199997 163.051 0.199997H185.067C186.902 0.199997 188.246 0.754664 189.099 1.864C189.995 2.97333 190.251 4.44533 189.867 6.28L182.763 38.92C182.379 40.7547 181.505 42.2267 180.139 43.336C178.817 44.4453 177.238 45 175.403 45H153.323C151.489 45 150.123 44.4453 149.227 43.336C148.374 42.2267 148.161 40.7547 148.587 38.92L155.627 6.28ZM168.747 34.184C169.302 34.184 169.771 34.0133 170.155 33.672C170.582 33.3307 170.838 32.8827 170.923 32.328L175.083 12.808C175.297 11.6133 174.806 11.016 173.611 11.016H169.771C168.577 11.016 167.83 11.6133 167.531 12.808L163.435 32.328C163.35 32.8827 163.414 33.3307 163.627 33.672C163.883 34.0133 164.289 34.184 164.843 34.184H168.747ZM195.682 28.424C193.848 28.424 192.482 27.8693 191.586 26.76C190.733 25.6507 190.498 24.1573 190.882 22.28L194.274 6.28C194.658 4.44533 195.533 2.97333 196.898 1.864C198.264 0.754664 199.864 0.199997 201.698 0.199997H222.178C224.056 0.199997 225.421 0.754664 226.274 1.864C227.128 2.97333 227.362 4.44533 226.978 6.28L220.002 38.92C219.618 40.7547 218.744 42.2267 217.378 43.336C216.013 44.4453 214.413 45 212.578 45H188.066L190.37 34.184H207.714L208.93 28.424H195.682ZM212.642 11.016H206.37L204.514 19.72H210.786L212.642 11.016Z" fill="url(#paint0_linear)"/>
<defs>
<linearGradient id="paint0_linear" x1="221" y1="129" x2="-41.3133" y2="-96.1684" gradientUnits="userSpaceOnUse">
<stop stop-color="#CFF37D"/>
<stop offset="1" stop-color="#00B59C"/>
</linearGradient>
</defs>
</svg>
