<svg width="374" height="575" viewBox="0 0 374 575" fill="none" xmlns="http://www.w3.org/2000/svg">
<path d="M147.213 195.342C124.739 212.324 112.135 229.639 105.069 243.413C107.748 231.264 113.203 209.463 119.519 200.382C118.728 200.882 91.59 218.725 96.1431 270.934C96.1431 270.934 63.6327 223.238 156.069 141.133C253.74 54.376 233.195 4.04102 233.195 4.04102C278.546 92.1307 196.201 158.337 147.213 195.342Z" fill="url(#paint0_linear)"/>
<path d="M161.789 214.281C141.355 226.82 113.301 246.148 104.68 262.395C104.68 262.395 104.694 262.381 104.722 262.353C104.75 262.325 104.791 262.297 104.819 262.256C106.388 260.77 113.425 254.327 127.113 246.204C127.14 246.19 127.168 246.162 127.196 246.148C143.618 236.387 169.604 224.209 207.139 215.156C280.628 197.424 297.827 162.502 297.827 162.502C304.226 230.986 198.283 248.523 150.864 254.119C143.035 255.049 136.385 256.257 130.736 257.618C130.736 257.618 152.766 245.163 166.356 243.219C162.552 243.746 121.574 249.814 103.514 269.907C103.5 269.921 103.5 269.921 103.5 269.921C99.9049 273.211 99.2664 275.627 99.2664 275.627C93.5333 232.36 190.995 177.096 272.813 110.376C348.855 48.3632 339.374 5.70695 337.653 0C374.023 101.795 282.002 166.765 200.893 205.769C168.091 221.543 146.061 233.846 131.458 242.899C133.387 239.928 142.021 227.722 161.789 214.281Z" fill="url(#paint1_linear)"/>
<path d="M264.984 247.926C264.984 247.926 259.001 283.959 177.447 273.795C157.569 271.323 141.188 270.879 127.751 271.642C132.651 269.226 140.703 265.935 150.35 264.436C147.963 264.713 112.509 268.962 100.53 275.433C100.072 275.544 99.6273 275.655 99.1831 275.766L99.2664 275.627C99.2664 275.627 128.709 253.73 179.779 255.299C230.863 256.854 252.74 254.646 264.984 247.926Z" fill="url(#paint2_linear)"/>
<path d="M226.171 299.858C218.356 292.832 174.837 300.65 136.538 299.858C121.824 299.553 112.371 296.22 106.318 292.235C116.16 296.692 125.197 294.651 125.197 294.651C106.221 290.93 98.4753 282.279 95.6435 277.794C95.6296 277.739 95.6296 277.711 95.6296 277.711C113.342 296.47 140.439 286.834 183.166 282.654C225.907 278.489 226.171 299.858 226.171 299.858Z" fill="url(#paint3_linear)"/>
<path opacity="0.44" d="M106.041 324.879C106.041 324.879 106.054 324.879 106.082 324.893C106.068 324.893 106.068 324.893 106.054 324.893C106.041 324.879 106.041 324.879 106.041 324.879Z" fill="url(#paint4_linear)"/>
<path d="M453.12 574.32C453.12 574.32 317.914 581.36 246.369 472.664C203.072 406.874 178.821 375.757 155.501 355.887C172.575 364.135 185.193 371.994 185.193 371.994C167.772 352.304 109.817 326.547 106.221 324.964C106.18 324.95 106.124 324.922 106.082 324.894H106.096C107.471 325.311 133.887 333.017 151.975 329.963C151.975 329.963 107.096 334.392 95.6436 285.293C96.0322 286.265 108.928 317.591 158.679 317.591C209.236 317.591 382.241 260.771 377.812 357.206C377.812 357.206 372.607 310.023 321.009 313.411C269.426 316.799 182.653 343.654 156.861 340.002C156.861 340.002 197.506 350.694 242.065 407.763C286.611 464.847 330.393 564.156 453.12 574.32Z" fill="url(#paint5_linear)"/>
<path d="M106.221 324.962C106.179 324.948 106.124 324.92 106.082 324.893H106.096C106.124 324.92 106.166 324.934 106.221 324.962Z" fill="url(#paint6_linear)"/>
<path opacity="0.44" d="M104.819 262.257C106.388 260.771 113.426 254.328 127.113 246.205C117.784 252.579 105.583 261.715 104.722 262.354C104.75 262.326 104.791 262.298 104.819 262.257Z" fill="url(#paint7_linear)"/>
<path d="M184.415 201.244C183 202.008 173.699 206.993 161.83 214.255C168.174 209.964 175.656 205.535 184.415 201.244Z" fill="url(#paint8_linear)"/>
<path d="M118.95 301.039C118.95 301.039 168.591 311.203 195.035 303.775C195.035 303.775 153.737 319.673 127.807 309.509C127.807 309.509 135.622 310.037 139.009 309.384C139.009 309.37 124.683 308.468 118.95 301.039Z" fill="url(#paint9_linear)"/>
<path d="M112.301 283.445C112.301 283.445 123.504 285.264 134.97 282.404C146.436 279.544 167.924 279.932 170.673 281.487C170.673 281.487 149.698 271.712 134.72 274.184C119.742 276.655 108.748 280.96 104.736 279.391C104.736 279.391 114.661 283.556 124.947 280.307C124.947 280.321 120.769 283.057 112.301 283.445Z" fill="url(#paint10_linear)"/>
<path d="M67.228 207.74C67.228 207.74 85.9819 221.015 87.2868 247.925C88.5916 274.835 93.0198 307.938 118.95 323.837C118.95 323.837 69.8377 318.88 72.4336 252.16C72.4336 252.16 75.5569 285.777 87.5505 296.732C87.5505 296.732 75.8207 277.445 77.3893 254.118C78.9579 230.79 72.9611 213.378 67.228 207.74Z" fill="url(#paint11_linear)"/>
<path d="M53.9434 208.895C53.9434 208.895 73.4885 219.323 70.1014 260.507C66.7143 301.691 85.2183 324.964 85.2183 324.964C85.2183 324.964 41.9636 300.386 58.899 240.692C58.899 240.692 54.4709 267.019 59.4265 277.711C59.4265 277.711 58.3854 254.508 61.7725 244.872C65.1457 235.221 62.536 216.462 53.9434 208.895Z" fill="url(#paint12_linear)"/>
<path d="M49.7652 210.727C49.7652 210.727 58.8853 219.849 55.762 235.748C52.6386 251.647 50.2927 276.724 53.9435 288.819C53.9435 288.819 41.9638 271.198 45.8645 242.788C45.8645 242.788 49.779 225.584 48.2104 220.891C48.2104 220.891 51.7225 228.444 50.7508 233.929C50.7508 233.915 53.9435 222.446 49.7652 210.727Z" fill="url(#paint13_linear)"/>
<path d="M43.5184 202.908C43.5184 202.908 46.1143 210.462 45.0732 215.155C45.0732 215.155 30.4837 194.827 0 193.522C0 193.522 10.6887 184.399 30.7475 189.606L22.6685 185.44C22.6685 185.44 27.6241 179.442 39.0903 181.524C50.5564 183.607 97.3925 191.425 115.924 164.32C115.924 164.32 106.568 196.382 53.9434 197.687C53.9434 197.687 69.5185 210.351 69.574 224.528C69.574 224.542 62.2029 206.296 43.5184 202.908Z" fill="url(#paint14_linear)"/>
<path d="M82.345 305.594C82.345 305.594 91.479 320.187 124.559 338.961C157.638 357.734 189.51 379.354 168.507 412.984C168.507 412.984 167.383 384.922 140.98 371.286C101.113 350.694 90.6183 330.102 90.6183 330.102C90.6183 330.102 106.235 348.07 139.148 359.289C139.148 359.289 86.1207 330.157 82.345 305.594Z" fill="url(#paint15_linear)"/>
<path d="M172.228 342.346C172.228 342.346 194.382 341.568 208.708 342.346C223.034 343.124 251.185 341.568 256.655 336.611C256.655 336.611 240.052 356.62 211.054 354.329C182.056 352.038 175.226 345.554 175.226 345.554L200.893 348.331C200.893 348.345 187.608 344.693 172.228 342.346Z" fill="url(#paint16_linear)"/>
<path d="M88.3417 339.154C88.3417 339.154 81.7203 328.99 72.7112 328.726C72.6973 328.726 86.9258 327.949 88.3417 339.154Z" fill="url(#paint17_linear)"/>
<defs>
<linearGradient id="paint0_linear" x1="246" y1="55" x2="168.487" y2="270.934" gradientUnits="userSpaceOnUse">
<stop offset="0.125175" stop-color="#CFF37D"/>
<stop offset="0.534922" stop-color="#1AD598"/>
<stop offset="0.898388" stop-color="#8E944C" stop-opacity="0"/>
</linearGradient>
<linearGradient id="paint1_linear" x1="313" y1="104" x2="135.5" y2="246" gradientUnits="userSpaceOnUse">
<stop offset="0.0104167" stop-color="#CFF37D"/>
<stop offset="0.260417" stop-color="#1AD598"/>
<stop offset="1" stop-color="#8E944C" stop-opacity="0"/>
</linearGradient>
<linearGradient id="paint2_linear" x1="249.5" y1="292" x2="128" y2="236" gradientUnits="userSpaceOnUse">
<stop offset="0.0104167" stop-color="#CFF37D"/>
<stop offset="0.135417" stop-color="#1AD598"/>
<stop offset="1" stop-color="#8E944C" stop-opacity="0"/>
</linearGradient>
<linearGradient id="paint3_linear" x1="226" y1="307" x2="145" y2="272.5" gradientUnits="userSpaceOnUse">
<stop offset="0.0104167" stop-color="#CFF37D"/>
<stop offset="0.348958" stop-color="#1AD598"/>
<stop offset="1" stop-color="#8E944C" stop-opacity="0"/>
</linearGradient>
<linearGradient id="paint4_linear" x1="106.061" y1="324.879" x2="106.061" y2="324.893" gradientUnits="userSpaceOnUse">
<stop offset="0.0104167" stop-color="#CFF37D"/>
<stop offset="0.135417" stop-color="#1AD598"/>
<stop offset="1" stop-color="#8E944C" stop-opacity="0"/>
</linearGradient>
<linearGradient id="paint5_linear" x1="358.5" y1="364" x2="159.5" y2="412" gradientUnits="userSpaceOnUse">
<stop offset="0.0104167" stop-color="#CFF37D"/>
<stop offset="0.135417" stop-color="#1AD598"/>
<stop offset="1" stop-color="#8E944C" stop-opacity="0"/>
</linearGradient>
<linearGradient id="paint6_linear" x1="106.152" y1="324.893" x2="106.152" y2="324.962" gradientUnits="userSpaceOnUse">
<stop offset="0.0104167" stop-color="#CFF37D"/>
<stop offset="0.135417" stop-color="#1AD598"/>
<stop offset="1" stop-color="#8E944C" stop-opacity="0"/>
</linearGradient>
<linearGradient id="paint7_linear" x1="115.917" y1="246.205" x2="115.917" y2="262.354" gradientUnits="userSpaceOnUse">
<stop offset="0.0104167" stop-color="#CFF37D"/>
<stop offset="0.135417" stop-color="#1AD598"/>
<stop offset="1" stop-color="#8E944C" stop-opacity="0"/>
</linearGradient>
<linearGradient id="paint8_linear" x1="173.123" y1="201.244" x2="173.123" y2="214.255" gradientUnits="userSpaceOnUse">
<stop offset="0.0104167" stop-color="#CFF37D"/>
<stop offset="0.135417" stop-color="#1AD598"/>
<stop offset="1" stop-color="#8E944C" stop-opacity="0"/>
</linearGradient>
<linearGradient id="paint9_linear" x1="156.993" y1="301.039" x2="156.993" y2="312.904" gradientUnits="userSpaceOnUse">
<stop offset="0.0104167" stop-color="#CFF37D"/>
<stop offset="0.135417" stop-color="#1AD598"/>
<stop offset="1" stop-color="#8E944C" stop-opacity="0"/>
</linearGradient>
<linearGradient id="paint10_linear" x1="137.704" y1="273.783" x2="137.704" y2="284.015" gradientUnits="userSpaceOnUse">
<stop offset="0.0104167" stop-color="#CFF37D"/>
<stop offset="0.135417" stop-color="#1AD598"/>
<stop offset="1" stop-color="#8E944C" stop-opacity="0"/>
</linearGradient>
<linearGradient id="paint11_linear" x1="93.0892" y1="207.74" x2="93.0892" y2="323.837" gradientUnits="userSpaceOnUse">
<stop offset="0.0104167" stop-color="#CFF37D"/>
<stop offset="0.135417" stop-color="#1AD598"/>
<stop offset="1" stop-color="#8E944C" stop-opacity="0"/>
</linearGradient>
<linearGradient id="paint12_linear" x1="69.5808" y1="208.895" x2="69.5808" y2="324.964" gradientUnits="userSpaceOnUse">
<stop offset="0.0104167" stop-color="#CFF37D"/>
<stop offset="0.135417" stop-color="#1AD598"/>
<stop offset="1" stop-color="#8E944C" stop-opacity="0"/>
</linearGradient>
<linearGradient id="paint13_linear" x1="50.7485" y1="210.727" x2="50.7485" y2="288.819" gradientUnits="userSpaceOnUse">
<stop offset="0.0104167" stop-color="#CFF37D"/>
<stop offset="0.135417" stop-color="#1AD598"/>
<stop offset="1" stop-color="#8E944C" stop-opacity="0"/>
</linearGradient>
<linearGradient id="paint14_linear" x1="57.9621" y1="164.32" x2="57.9621" y2="224.528" gradientUnits="userSpaceOnUse">
<stop offset="0.0104167" stop-color="#CFF37D"/>
<stop offset="0.135417" stop-color="#1AD598"/>
<stop offset="1" stop-color="#8E944C" stop-opacity="0"/>
</linearGradient>
<linearGradient id="paint15_linear" x1="128.794" y1="305.594" x2="128.794" y2="412.984" gradientUnits="userSpaceOnUse">
<stop offset="0.0104167" stop-color="#CFF37D"/>
<stop offset="0.135417" stop-color="#1AD598"/>
<stop offset="1" stop-color="#8E944C" stop-opacity="0"/>
</linearGradient>
<linearGradient id="paint16_linear" x1="273" y1="337" x2="172" y2="346" gradientUnits="userSpaceOnUse">
<stop offset="0.0104167" stop-color="#CFF37D"/>
<stop offset="0.135417" stop-color="#1AD598"/>
<stop offset="1" stop-color="#8E944C" stop-opacity="0"/>
</linearGradient>
<linearGradient id="paint17_linear" x1="80.5265" y1="328.715" x2="80.5265" y2="339.154" gradientUnits="userSpaceOnUse">
<stop offset="0.0104167" stop-color="#CFF37D"/>
<stop offset="0.135417" stop-color="#1AD598"/>
<stop offset="1" stop-color="#8E944C" stop-opacity="0"/>
</linearGradient>
</defs>
</svg>
